<?xml version="1.0" encoding="utf-8"?>
<!-- Generator: Adobe Illustrator 16.0.0, SVG Export Plug-In . SVG Version: 6.00 Build 0)  -->
<!DOCTYPE svg PUBLIC "-//W3C//DTD SVG 1.1//EN" "http://www.w3.org/Graphics/SVG/1.1/DTD/svg11.dtd">
<svg version="1.1" xmlns="http://www.w3.org/2000/svg" xmlns:xlink="http://www.w3.org/1999/xlink" x="0px" y="0px" width="500px"
	 height="500px" viewBox="0 0 500 500" enable-background="new 0 0 500 500" xml:space="preserve">
<g id="Layer_1">
	<path fill="none" stroke="#FFFFFF" stroke-width="25" stroke-miterlimit="10" d="M450.5,375.427
		c0,39.805-32.268,72.073-72.072,72.073H120.572c-39.804,0-72.072-32.269-72.072-72.073V117.573
		c0-39.805,32.268-72.073,72.072-72.073h257.855c39.805,0,72.072,32.268,72.072,72.073V375.427z"/>
	<g>
		<path fill="#FFFFFF" d="M171.652,222.083h-30.759v114.919h-19.012V222.083H94.477v-15.934h27.404v-35.791
			c0-14.912,3.634-26.656,10.901-35.232c7.272-8.571,18.456-12.863,33.555-12.863c2.42,0,5.032,0.143,7.829,0.42
			c2.796,0.283,5.403,0.797,7.832,1.537l-3.356,16.781c-2.056-0.561-4.104-1.022-6.151-1.398c-2.056-0.372-4.382-0.561-6.99-0.561
			c-5.032,0-9.185,0.838-12.442,2.515c-3.262,1.68-5.78,4.059-7.55,7.133c-1.774,3.074-2.984,6.667-3.634,10.763
			c-0.658,4.104-0.981,8.486-0.981,13.146v33.551h30.759V222.083z M236.523,335.49h-19.015V124.106h19.015V335.49z"/>
		<path fill="#FFFFFF" d="M404.342,271.569c0,9.883-1.725,19.016-5.175,27.403c-3.449,8.387-8.249,15.656-14.396,21.811
			c-6.156,6.148-13.515,10.955-22.091,14.396c-8.574,3.443-17.992,5.176-28.245,5.176c-10.063,0-19.384-1.732-27.959-5.176
			c-8.576-3.441-15.941-8.248-22.091-14.396c-6.146-6.154-10.953-13.424-14.396-21.811c-3.45-8.388-5.174-17.521-5.174-27.403
			c0-9.876,1.724-19.013,5.174-27.4c3.443-8.392,8.25-15.659,14.396-21.812c6.149-6.152,13.515-10.946,22.091-14.396
			c8.575-3.45,17.896-5.176,27.959-5.176c10.253,0,19.671,1.726,28.245,5.176c8.576,3.45,15.935,8.244,22.091,14.396
			c6.147,6.153,10.947,13.42,14.396,21.812C402.617,252.557,404.342,261.693,404.342,271.569z"/>
	</g>
	<path fill="#FFFFFF" d="M282.661,171.25c0,0-11.104-0.53-11.104-11.125c0-10.599,11.104-11.125,11.104-11.125h100.933
		c0,0,9.082,0.526,9.082,11.125c0,10.595-9.082,10.609-9.082,10.609"/>
</g>
<g id="Creative_Commons_License" display="none">
	
		<text id="Creative_Commons_License_1_" transform="matrix(1 0 0 1 2 490.0439)" display="inline" font-family="'MyriadPro-Regular'" font-size="12">With assets by Piotr Kwiatkowski, Budi Tanrim / CC BY</text>
</g>
<g id="Isolation_Mode">
</g>
</svg>
