<?xml version="1.0" encoding="utf-8"?>
<!-- Generator: Adobe Illustrator 16.0.0, SVG Export Plug-In . SVG Version: 6.00 Build 0)  -->
<!DOCTYPE svg PUBLIC "-//W3C//DTD SVG 1.1//EN" "http://www.w3.org/Graphics/SVG/1.1/DTD/svg11.dtd">
<svg version="1.1" id="Layer_1" xmlns="http://www.w3.org/2000/svg" xmlns:xlink="http://www.w3.org/1999/xlink" x="0px" y="0px"
	 width="500px" height="500px" viewBox="0 0 500 500" enable-background="new 0 0 500 500" xml:space="preserve">
<g>
	<path fill="#64ACDF" d="M90.449,429.602h2.135l5.974,13.868h-2.82l-1.293-3.173h-6.013l-1.254,3.173h-2.762L90.449,429.602z
		 M93.583,438.181l-2.135-5.641l-2.174,5.641H93.583z"/>
	<path fill="#64ACDF" d="M115.185,432.579c-0.261-0.379-0.61-0.656-1.048-0.832c-0.438-0.177-0.898-0.265-1.381-0.265
		c-0.288,0-0.565,0.032-0.833,0.098c-0.268,0.065-0.509,0.17-0.725,0.313c-0.216,0.144-0.389,0.33-0.519,0.559
		c-0.131,0.229-0.196,0.499-0.196,0.812c0,0.47,0.163,0.829,0.49,1.077c0.326,0.248,0.731,0.464,1.214,0.646
		c0.483,0.183,1.012,0.359,1.587,0.529c0.574,0.17,1.103,0.404,1.586,0.705c0.483,0.3,0.888,0.698,1.214,1.194
		c0.326,0.497,0.49,1.156,0.49,1.979c0,0.744-0.137,1.395-0.411,1.949c-0.274,0.555-0.644,1.016-1.107,1.381
		s-1.002,0.64-1.616,0.822c-0.614,0.183-1.26,0.274-1.939,0.274c-0.862,0-1.691-0.144-2.487-0.431
		c-0.797-0.287-1.482-0.771-2.057-1.449l1.861-1.803c0.3,0.457,0.695,0.813,1.185,1.067c0.49,0.255,1.009,0.382,1.558,0.382
		c0.287,0,0.574-0.039,0.862-0.117c0.287-0.078,0.548-0.195,0.783-0.353c0.235-0.156,0.424-0.355,0.568-0.598
		c0.144-0.241,0.215-0.519,0.215-0.832c0-0.51-0.164-0.901-0.49-1.176c-0.327-0.273-0.731-0.506-1.214-0.695
		c-0.483-0.188-1.012-0.368-1.586-0.538c-0.575-0.17-1.104-0.401-1.587-0.695s-0.888-0.686-1.214-1.176
		c-0.327-0.489-0.49-1.146-0.49-1.968c0-0.719,0.147-1.339,0.441-1.861s0.679-0.956,1.156-1.303
		c0.477-0.346,1.021-0.604,1.635-0.773s1.241-0.255,1.88-0.255c0.731,0,1.44,0.111,2.125,0.333c0.686,0.223,1.302,0.588,1.851,1.097
		L115.185,432.579z"/>
	<path fill="#64ACDF" d="M122.472,431.835h-4.25v-2.233h10.969v2.233h-4.25v11.635h-2.468V431.835z"/>
	<path fill="#64ACDF" d="M130.874,429.602h9.187v2.233h-6.718v3.408h6.366v2.232h-6.366v3.761h7.071v2.233h-9.539V429.602z"/>
	<path fill="#64ACDF" d="M142.842,429.602h4.662c0.666,0,1.309,0.065,1.93,0.196c0.62,0.131,1.166,0.35,1.635,0.656
		c0.47,0.307,0.846,0.718,1.126,1.233c0.281,0.517,0.421,1.159,0.421,1.93c0,0.875-0.15,1.58-0.451,2.115
		c-0.301,0.536-0.705,0.95-1.214,1.244s-1.101,0.493-1.773,0.598s-1.375,0.156-2.105,0.156h-1.763v5.739h-2.468V429.602z
		 M146.798,435.615c0.353,0,0.718-0.013,1.097-0.039c0.378-0.026,0.728-0.104,1.048-0.235c0.32-0.13,0.581-0.326,0.784-0.588
		c0.202-0.261,0.303-0.626,0.303-1.097c0-0.431-0.091-0.773-0.274-1.028c-0.183-0.255-0.418-0.45-0.705-0.588
		c-0.288-0.137-0.607-0.225-0.96-0.264s-0.692-0.06-1.019-0.06h-1.763v3.898H146.798z"/>
	<path fill="#64ACDF" d="M165.933,431.835h-4.25v-2.233h10.969v2.233h-4.25v11.635h-2.468V431.835z"/>
	<path fill="#64ACDF" d="M173.591,436.595c0-1.11,0.183-2.119,0.548-3.026c0.365-0.907,0.872-1.682,1.518-2.321
		s1.417-1.133,2.311-1.479s1.877-0.52,2.948-0.52c1.083-0.013,2.076,0.147,2.977,0.48c0.901,0.333,1.678,0.819,2.331,1.459
		c0.653,0.64,1.162,1.41,1.528,2.312c0.365,0.9,0.548,1.906,0.548,3.017c0,1.084-0.183,2.069-0.548,2.957
		c-0.366,0.889-0.875,1.652-1.528,2.292c-0.653,0.64-1.43,1.14-2.331,1.498c-0.901,0.359-1.894,0.546-2.977,0.559
		c-1.071,0-2.054-0.173-2.948-0.519c-0.895-0.347-1.665-0.836-2.311-1.47c-0.646-0.633-1.153-1.394-1.518-2.282
		C173.773,438.664,173.591,437.679,173.591,436.595z M176.176,436.438c0,0.745,0.114,1.431,0.343,2.057
		c0.229,0.627,0.551,1.169,0.97,1.626c0.417,0.457,0.917,0.816,1.498,1.077c0.581,0.262,1.231,0.392,1.949,0.392
		c0.718,0,1.371-0.13,1.958-0.392c0.588-0.261,1.09-0.62,1.508-1.077s0.741-0.999,0.97-1.626c0.229-0.626,0.343-1.312,0.343-2.057
		c0-0.691-0.114-1.338-0.343-1.938s-0.552-1.127-0.97-1.577s-0.92-0.803-1.508-1.058c-0.587-0.255-1.241-0.382-1.958-0.382
		c-0.718,0-1.368,0.127-1.949,0.382s-1.081,0.607-1.498,1.058c-0.418,0.45-0.741,0.977-0.97,1.577S176.176,435.746,176.176,436.438z
		"/>
	<path fill="#64ACDF" d="M189.104,429.602h2.703l2.605,9.99h0.039l3.115-9.99h2.429l3.056,9.99h0.039l2.723-9.99h2.507
		l-4.035,13.868h-2.351l-3.212-10.558h-0.04l-3.212,10.558h-2.272L189.104,429.602z"/>
	<path fill="#64ACDF" d="M213.862,429.602h2.135l5.974,13.868h-2.82l-1.293-3.173h-6.013l-1.254,3.173h-2.762L213.862,429.602z
		 M216.997,438.181l-2.135-5.641l-2.174,5.641H216.997z"/>
	<path fill="#64ACDF" d="M223.519,429.602h4.818c0.666,0,1.309,0.062,1.93,0.187c0.62,0.124,1.172,0.336,1.655,0.637
		c0.483,0.3,0.869,0.705,1.156,1.214c0.287,0.51,0.431,1.156,0.431,1.939c0,1.006-0.278,1.848-0.833,2.526
		c-0.555,0.68-1.349,1.091-2.38,1.234l3.683,6.131h-2.978l-3.212-5.876h-1.802v5.876h-2.468V429.602z M227.906,435.479
		c0.353,0,0.705-0.017,1.058-0.05c0.353-0.032,0.676-0.11,0.97-0.234s0.532-0.313,0.715-0.568c0.183-0.255,0.274-0.61,0.274-1.067
		c0-0.404-0.085-0.731-0.255-0.979c-0.17-0.248-0.392-0.434-0.666-0.559c-0.274-0.124-0.578-0.205-0.911-0.244
		s-0.656-0.06-0.97-0.06h-2.135v3.762H227.906z"/>
	<path fill="#64ACDF" d="M235.858,429.602h5.465c0.914,0,1.795,0.141,2.645,0.421c0.849,0.281,1.599,0.709,2.252,1.283
		c0.653,0.575,1.175,1.296,1.567,2.165c0.392,0.868,0.588,1.89,0.588,3.065c0,1.188-0.226,2.217-0.676,3.085
		c-0.451,0.868-1.032,1.586-1.744,2.154c-0.711,0.568-1.501,0.992-2.37,1.273c-0.869,0.28-1.721,0.421-2.557,0.421h-5.171V429.602z
		 M240.167,441.236c0.771,0,1.499-0.088,2.184-0.264c0.686-0.177,1.283-0.451,1.792-0.823s0.911-0.854,1.205-1.449
		c0.294-0.594,0.44-1.315,0.44-2.164c0-0.836-0.13-1.555-0.392-2.155s-0.624-1.087-1.087-1.459
		c-0.464-0.372-1.012-0.646-1.646-0.822c-0.633-0.177-1.329-0.265-2.086-0.265h-2.252v9.401H240.167z"/>
	<path fill="#64ACDF" d="M257.522,432.579c-0.262-0.379-0.611-0.656-1.049-0.832c-0.438-0.177-0.897-0.265-1.381-0.265
		c-0.287,0-0.564,0.032-0.832,0.098s-0.51,0.17-0.725,0.313c-0.216,0.144-0.389,0.33-0.52,0.559s-0.195,0.499-0.195,0.812
		c0,0.47,0.163,0.829,0.489,1.077s0.731,0.464,1.215,0.646c0.482,0.183,1.012,0.359,1.586,0.529c0.575,0.17,1.104,0.404,1.587,0.705
		c0.483,0.3,0.888,0.698,1.215,1.194c0.326,0.497,0.489,1.156,0.489,1.979c0,0.744-0.137,1.395-0.411,1.949
		s-0.644,1.016-1.106,1.381c-0.464,0.365-1.003,0.64-1.616,0.822c-0.614,0.183-1.261,0.274-1.939,0.274
		c-0.861,0-1.691-0.144-2.487-0.431c-0.797-0.287-1.482-0.771-2.057-1.449l1.86-1.803c0.301,0.457,0.695,0.813,1.186,1.067
		c0.489,0.255,1.009,0.382,1.557,0.382c0.287,0,0.575-0.039,0.862-0.117s0.548-0.195,0.783-0.353
		c0.235-0.156,0.425-0.355,0.568-0.598c0.144-0.241,0.215-0.519,0.215-0.832c0-0.51-0.163-0.901-0.489-1.176
		c-0.326-0.273-0.731-0.506-1.215-0.695c-0.482-0.188-1.012-0.368-1.586-0.538c-0.575-0.17-1.104-0.401-1.587-0.695
		s-0.889-0.686-1.214-1.176c-0.327-0.489-0.49-1.146-0.49-1.968c0-0.719,0.147-1.339,0.441-1.861s0.679-0.956,1.156-1.303
		c0.477-0.346,1.021-0.604,1.636-0.773c0.613-0.17,1.24-0.255,1.88-0.255c0.731,0,1.439,0.111,2.125,0.333
		c0.686,0.223,1.303,0.588,1.852,1.097L257.522,432.579z"/>
	<path fill="#64ACDF" d="M277.048,432.579c-0.262-0.379-0.611-0.656-1.049-0.832c-0.438-0.177-0.897-0.265-1.381-0.265
		c-0.287,0-0.564,0.032-0.832,0.098s-0.51,0.17-0.725,0.313c-0.216,0.144-0.389,0.33-0.52,0.559s-0.195,0.499-0.195,0.812
		c0,0.47,0.163,0.829,0.489,1.077s0.731,0.464,1.215,0.646c0.482,0.183,1.012,0.359,1.586,0.529c0.575,0.17,1.104,0.404,1.587,0.705
		c0.483,0.3,0.888,0.698,1.215,1.194c0.326,0.497,0.489,1.156,0.489,1.979c0,0.744-0.137,1.395-0.411,1.949
		s-0.644,1.016-1.106,1.381c-0.464,0.365-1.003,0.64-1.616,0.822c-0.614,0.183-1.261,0.274-1.939,0.274
		c-0.861,0-1.691-0.144-2.487-0.431c-0.797-0.287-1.482-0.771-2.057-1.449l1.86-1.803c0.301,0.457,0.695,0.813,1.186,1.067
		c0.489,0.255,1.009,0.382,1.557,0.382c0.287,0,0.575-0.039,0.862-0.117s0.548-0.195,0.783-0.353
		c0.235-0.156,0.425-0.355,0.568-0.598c0.144-0.241,0.215-0.519,0.215-0.832c0-0.51-0.163-0.901-0.489-1.176
		c-0.326-0.273-0.731-0.506-1.215-0.695c-0.482-0.188-1.012-0.368-1.586-0.538c-0.575-0.17-1.104-0.401-1.587-0.695
		s-0.888-0.686-1.214-1.176c-0.327-0.489-0.49-1.146-0.49-1.968c0-0.719,0.147-1.339,0.44-1.861c0.294-0.522,0.68-0.956,1.156-1.303
		c0.477-0.346,1.021-0.604,1.636-0.773c0.613-0.17,1.24-0.255,1.88-0.255c0.731,0,1.439,0.111,2.125,0.333
		c0.686,0.223,1.303,0.588,1.852,1.097L277.048,432.579z"/>
	<path fill="#64ACDF" d="M292.6,438.377c0,0.836-0.144,1.59-0.431,2.263s-0.68,1.243-1.176,1.714
		c-0.496,0.47-1.084,0.832-1.763,1.087s-1.417,0.382-2.213,0.382c-0.797,0-1.535-0.127-2.214-0.382s-1.27-0.617-1.772-1.087
		c-0.503-0.471-0.895-1.041-1.175-1.714c-0.281-0.673-0.422-1.427-0.422-2.263v-8.775h2.469v8.697c0,0.34,0.052,0.695,0.156,1.067
		s0.277,0.715,0.52,1.028c0.241,0.313,0.561,0.571,0.959,0.773c0.398,0.203,0.892,0.304,1.479,0.304s1.08-0.101,1.479-0.304
		c0.398-0.202,0.718-0.46,0.96-0.773c0.241-0.313,0.414-0.656,0.519-1.028s0.157-0.728,0.157-1.067v-8.697h2.468V438.377z"/>
	<path fill="#64ACDF" d="M302.433,432.579c-0.262-0.379-0.611-0.656-1.049-0.832c-0.438-0.177-0.897-0.265-1.381-0.265
		c-0.287,0-0.564,0.032-0.832,0.098s-0.51,0.17-0.725,0.313c-0.216,0.144-0.389,0.33-0.52,0.559s-0.195,0.499-0.195,0.812
		c0,0.47,0.163,0.829,0.489,1.077s0.731,0.464,1.215,0.646c0.482,0.183,1.012,0.359,1.586,0.529c0.575,0.17,1.104,0.404,1.587,0.705
		c0.483,0.3,0.888,0.698,1.215,1.194c0.326,0.497,0.489,1.156,0.489,1.979c0,0.744-0.137,1.395-0.411,1.949
		s-0.644,1.016-1.106,1.381c-0.464,0.365-1.003,0.64-1.616,0.822c-0.614,0.183-1.261,0.274-1.939,0.274
		c-0.861,0-1.691-0.144-2.487-0.431c-0.797-0.287-1.482-0.771-2.057-1.449l1.86-1.803c0.301,0.457,0.695,0.813,1.186,1.067
		c0.489,0.255,1.009,0.382,1.557,0.382c0.287,0,0.575-0.039,0.862-0.117s0.548-0.195,0.783-0.353
		c0.235-0.156,0.425-0.355,0.568-0.598c0.144-0.241,0.215-0.519,0.215-0.832c0-0.51-0.163-0.901-0.489-1.176
		c-0.326-0.273-0.731-0.506-1.215-0.695c-0.482-0.188-1.012-0.368-1.586-0.538c-0.575-0.17-1.104-0.401-1.587-0.695
		s-0.888-0.686-1.214-1.176c-0.327-0.489-0.49-1.146-0.49-1.968c0-0.719,0.147-1.339,0.44-1.861c0.294-0.522,0.68-0.956,1.156-1.303
		c0.477-0.346,1.021-0.604,1.636-0.773c0.613-0.17,1.24-0.255,1.88-0.255c0.731,0,1.439,0.111,2.125,0.333
		c0.686,0.223,1.303,0.588,1.852,1.097L302.433,432.579z"/>
	<path fill="#64ACDF" d="M309.719,431.835h-4.251v-2.233h10.97v2.233h-4.251v11.635h-2.468V431.835z"/>
	<path fill="#64ACDF" d="M320.806,429.602h2.135l5.975,13.868h-2.821l-1.293-3.173h-6.013l-1.254,3.173h-2.762L320.806,429.602z
		 M323.939,438.181l-2.135-5.641l-2.175,5.641H323.939z"/>
	<path fill="#64ACDF" d="M330.402,429.602h2.469v13.868h-2.469V429.602z"/>
	<path fill="#64ACDF" d="M335.907,429.602h3.271l6.719,10.304h0.039v-10.304h2.468v13.868h-3.134l-6.855-10.636h-0.039v10.636
		h-2.468V429.602z"/>
	<path fill="#64ACDF" d="M355.984,429.602h2.135l5.975,13.868h-2.821l-1.293-3.173h-6.013l-1.254,3.173h-2.762L355.984,429.602z
		 M359.118,438.181l-2.135-5.641l-2.175,5.641H359.118z"/>
	<path fill="#64ACDF" d="M365.641,429.602h5.405c0.522,0,1.038,0.062,1.548,0.187c0.509,0.124,0.963,0.326,1.361,0.607
		c0.398,0.28,0.722,0.643,0.97,1.087s0.372,0.979,0.372,1.605c0,0.784-0.223,1.431-0.666,1.939c-0.444,0.51-1.025,0.875-1.743,1.097
		v0.04c0.431,0.052,0.832,0.173,1.204,0.362s0.689,0.431,0.95,0.725c0.262,0.294,0.467,0.633,0.617,1.019
		c0.15,0.385,0.226,0.8,0.226,1.243c0,0.758-0.15,1.388-0.451,1.891c-0.3,0.503-0.695,0.907-1.185,1.214
		c-0.49,0.308-1.052,0.526-1.685,0.656c-0.634,0.131-1.276,0.196-1.93,0.196h-4.994V429.602z M368.108,435.243h2.252
		c0.823,0,1.44-0.16,1.852-0.48c0.411-0.319,0.617-0.74,0.617-1.263c0-0.601-0.213-1.048-0.637-1.342
		c-0.425-0.294-1.106-0.441-2.047-0.441h-2.037V435.243z M368.108,441.354h2.271c0.313,0,0.65-0.02,1.009-0.059
		c0.359-0.04,0.689-0.131,0.989-0.274c0.301-0.144,0.549-0.35,0.745-0.617c0.195-0.268,0.293-0.63,0.293-1.087
		c0-0.731-0.238-1.24-0.715-1.528c-0.477-0.287-1.218-0.431-2.223-0.431h-2.37V441.354z"/>
	<path fill="#64ACDF" d="M378.273,429.602h2.469v13.868h-2.469V429.602z"/>
	<path fill="#64ACDF" d="M383.778,429.602h2.468v11.635h5.896v2.233h-8.363V429.602z"/>
	<path fill="#64ACDF" d="M393.885,429.602h2.469v13.868h-2.469V429.602z"/>
	<path fill="#64ACDF" d="M402.229,431.835h-4.251v-2.233h10.97v2.233h-4.251v11.635h-2.468V431.835z"/>
	<path fill="#64ACDF" d="M414.021,437.535l-5.211-7.934h3.095l3.408,5.523l3.447-5.523h2.938l-5.21,7.934v5.935h-2.468V437.535z"/>
</g>
<path fill="#64ACDF" d="M368.346,276.961c-17.132,20.276-61.278,24.388-77.543,4.509c-13.335-16.296-12.454-44.839-2.254-67.083
	c21.675-47.266,79.347-5.447,79.347-5.447S380.68,262.363,368.346,276.961z"/>
<g>
	<path fill="#64ACDF" d="M182.621,197.044h-27.477v102.659h-16.984V197.044h-24.479v-14.236h24.479v-31.972
		c0-13.321,3.248-23.812,9.742-31.472c6.495-7.657,16.484-11.491,29.974-11.491c2.163,0,4.494,0.125,6.995,0.375
		c2.494,0.25,4.825,0.71,6.991,1.374l-2.998,14.986c-1.835-0.498-3.663-0.912-5.495-1.248c-1.834-0.331-3.917-0.5-6.245-0.5
		c-4.498,0-8.203,0.75-11.115,2.248c-2.913,1.5-5.164,3.623-6.745,6.371c-1.585,2.746-2.663,5.955-3.248,9.615
		c-0.584,3.664-0.874,7.579-0.874,11.74v29.974h27.477V197.044z M240.573,298.351h-16.987V109.518h16.987V298.351z"/>
	<path fill="#64ACDF" d="M390.486,241.25c0,8.826-1.543,16.984-4.622,24.479c-3.085,7.49-7.368,13.982-12.862,19.479
		c-5.495,5.495-12.073,9.785-19.731,12.863c-7.664,3.078-16.074,4.621-25.231,4.621c-8.989,0-17.318-1.543-24.977-4.621
		c-7.659-3.078-14.239-7.368-19.734-12.863c-5.494-5.497-9.784-11.989-12.862-19.479c-3.082-7.495-4.621-15.653-4.621-24.479
		s1.539-16.987,4.621-24.48c3.078-7.493,7.368-13.988,12.862-19.482c5.495-5.494,12.075-9.781,19.734-12.863
		c7.658-3.08,15.987-4.621,24.977-4.621c9.157,0,17.567,1.541,25.231,4.621c7.658,3.082,14.236,7.369,19.731,12.863
		c5.494,5.494,9.777,11.989,12.862,19.482C388.943,224.263,390.486,232.424,390.486,241.25z M372.502,241.25
		c0-6.494-1.043-12.616-3.121-18.36c-2.085-5.745-5.04-10.741-8.868-14.987c-3.832-4.246-8.495-7.618-13.989-10.115
		c-5.495-2.499-11.659-3.748-18.484-3.748c-6.826,0-12.948,1.249-18.357,3.748c-5.41,2.497-10.031,5.869-13.863,10.115
		s-6.783,9.242-8.866,14.987c-2.084,5.744-3.123,11.866-3.123,18.36c0,6.491,1.039,12.609,3.123,18.357
		c2.083,5.745,5.034,10.739,8.866,14.986c3.832,4.245,8.453,7.576,13.863,9.989c5.409,2.416,11.531,3.624,18.357,3.624
		c6.825,0,12.989-1.208,18.484-3.624c5.494-2.413,10.157-5.744,13.989-9.989c3.828-4.247,6.783-9.241,8.868-14.986
		C371.459,253.859,372.502,247.741,372.502,241.25z"/>
</g>
<path fill="none" stroke="#64ACDF" stroke-width="20" stroke-miterlimit="10" d="M431,321.646C431,357.499,408.457,393,372.603,393
	h-227.22C109.528,393,74,357.499,74,321.646V94.427C74,58.574,109.528,36,145.383,36h227.22C408.457,36,431,58.574,431,94.427
	V321.646z"/>
<path fill="#64ACDF" d="M281.785,151.63c0,0-9.918,0.653-9.918-8.815c0-9.467,9.918-8.814,9.918-8.814h90.167
	c0,0,8.115-0.652,8.115,8.814c0,9.469-8.115,8.916-8.115,8.916"/>
</svg>
