<?xml version="1.0" encoding="utf-8"?>
<!-- Generator: Adobe Illustrator 16.0.0, SVG Export Plug-In . SVG Version: 6.00 Build 0)  -->
<!DOCTYPE svg PUBLIC "-//W3C//DTD SVG 1.1//EN" "http://www.w3.org/Graphics/SVG/1.1/DTD/svg11.dtd">
<svg version="1.1" id="Layer_1" xmlns="http://www.w3.org/2000/svg" xmlns:xlink="http://www.w3.org/1999/xlink" x="0px" y="0px"
	 width="100px" height="100px" viewBox="0 0 100 100" enable-background="new 0 0 100 100" xml:space="preserve">
<path fill="#FFFFFF" d="M74.054,62.738c-3.632,4.298-12.988,5.169-16.436,0.956c-2.826-3.454-2.64-9.504-0.478-14.218
	c4.594-10.018,16.817-1.155,16.817-1.155S76.668,59.645,74.054,62.738z"/>
<g>
	<path fill="#FFFFFF" d="M34.689,45.8h-5.823v21.758h-3.6V45.8h-5.188v-3.018h5.188v-6.776c0-2.823,0.688-5.047,2.065-6.67
		c1.377-1.623,3.494-2.436,6.353-2.436c0.458,0,0.953,0.026,1.482,0.08c0.529,0.053,1.023,0.15,1.482,0.291l-0.635,3.176
		c-0.389-0.105-0.776-0.193-1.165-0.265c-0.389-0.07-0.83-0.106-1.324-0.106c-0.953,0-1.738,0.159-2.356,0.477
		c-0.617,0.318-1.094,0.768-1.43,1.351c-0.335,0.582-0.564,1.262-0.688,2.038c-0.124,0.777-0.185,1.606-0.185,2.488v6.353h5.823
		V45.8z M46.972,67.272h-3.601V27.249h3.601V67.272z"/>
	<path fill="#FFFFFF" d="M78.746,55.17c0,1.87-0.327,3.6-0.979,5.188c-0.654,1.587-1.562,2.963-2.727,4.128
		c-1.164,1.165-2.559,2.074-4.182,2.727c-1.625,0.652-3.407,0.979-5.348,0.979c-1.905,0-3.671-0.327-5.294-0.979
		s-3.019-1.562-4.183-2.727c-1.165-1.165-2.074-2.541-2.727-4.128c-0.653-1.589-0.979-3.318-0.979-5.188
		c0-1.871,0.326-3.601,0.979-5.189c0.652-1.588,1.562-2.965,2.727-4.129c1.164-1.164,2.56-2.073,4.183-2.726
		c1.623-0.653,3.389-0.979,5.294-0.979c1.94,0,3.723,0.327,5.348,0.979c1.623,0.653,3.018,1.562,4.182,2.726
		c1.165,1.165,2.072,2.542,2.727,4.129C78.419,51.569,78.746,53.299,78.746,55.17z M74.935,55.17c0-1.377-0.222-2.674-0.662-3.892
		c-0.441-1.218-1.067-2.277-1.879-3.177c-0.812-0.9-1.801-1.615-2.965-2.144c-1.165-0.529-2.472-0.794-3.918-0.794
		c-1.447,0-2.745,0.265-3.892,0.794s-2.126,1.244-2.938,2.144c-0.812,0.9-1.438,1.959-1.88,3.177s-0.661,2.515-0.661,3.892
		c0,1.376,0.22,2.672,0.661,3.891c0.441,1.218,1.067,2.276,1.88,3.177c0.812,0.899,1.791,1.605,2.938,2.117s2.444,0.768,3.892,0.768
		c1.446,0,2.753-0.256,3.918-0.768c1.164-0.512,2.152-1.218,2.965-2.117c0.812-0.9,1.438-1.959,1.879-3.177
		C74.713,57.842,74.935,56.546,74.935,55.17z"/>
</g>
<path fill="none" stroke="#FFFFFF" stroke-width="5" stroke-miterlimit="10" d="M86.5,72.209c0,7.6-3.945,15.291-11.544,15.291
	h-48.16c-7.6,0-15.296-7.691-15.296-15.291V24.051c0-7.599,7.697-11.551,15.296-11.551h48.16c7.599,0,11.544,3.952,11.544,11.551
	V72.209z"/>
<path fill="#FFFFFF" d="M55.707,36.175c0,0-2.103-0.081-2.103-2.088c0-2.006,2.103-2.087,2.103-2.087h19.11
	c0,0,1.721,0.081,1.721,2.087c0,2.007-1.721,2-1.721,2"/>
</svg>
